<svg width="800" height="800" viewBox="0 0 24 24" fill="none" xmlns="http://www.w3.org/2000/svg"><path d="M18.842 3.266a.4.4 0 0 0-.754 0l-.431 1.218a.4.4 0 0 1-.244.243l-1.217.431a.4.4 0 0 0 0 .754l1.217.431a.4.4 0 0 1 .244.244l.43 1.217a.4.4 0 0 0 .755 0l.431-1.217a.4.4 0 0 1 .243-.244l1.218-.43a.4.4 0 0 0 0-.755l-1.218-.431a.4.4 0 0 1-.243-.243l-.431-1.218ZM14.148 7.24a.276.276 0 0 1 .52 0l.239.671c.027.079.09.14.168.168l.67.238a.276.276 0 0 1 0 .52l-.67.239a.276.276 0 0 0-.168.168l-.238.67a.276.276 0 0 1-.521 0l-.238-.67a.276.276 0 0 0-.168-.168l-.67-.238a.276.276 0 0 1 0-.52l.67-.239a.276.276 0 0 0 .168-.168l.238-.67Zm2.622 2.981a.184.184 0 0 1 .347 0l.159.447c.018.053.06.094.112.113l.447.158a.184.184 0 0 1 0 .347l-.447.159a.185.185 0 0 0-.112.112l-.159.447a.184.184 0 0 1-.347 0l-.158-.447a.185.185 0 0 0-.112-.112l-.448-.159a.184.184 0 0 1 0-.347l.448-.158a.185.185 0 0 0 .112-.113l.158-.447Z" fill="#363853"/><path d="M11.135 4.65a.76.76 0 0 1-.067.853 5.886 5.886 0 0 0-1.3 3.691c0 3.314 2.77 6.037 6.233 6.037.952 0 1.851-.206 2.655-.573a.76.76 0 0 1 1.023.973C18.424 18.781 15.287 21 11.628 21 6.885 21 3 17.256 3 12.593c0-4.242 3.216-7.724 7.367-8.318a.76.76 0 0 1 .768.376Z" fill="#363853"/></svg>